<?xml version="1.0" encoding="iso-8859-1"?>
<!-- Generator: Adobe Illustrator 19.0.0, SVG Export Plug-In . SVG Version: 6.00 Build 0)  -->
<svg version="1.1" id="Layer_1" xmlns="http://www.w3.org/2000/svg" xmlns:xlink="http://www.w3.org/1999/xlink" x="0px" y="0px"
	 viewBox="0 0 511.996 511.996" style="enable-background:new 0 0 511.996 511.996;" xml:space="preserve">
<g>
	<g>
		<g>
			<path d="M283.58,379.58c-11.666,11.666-17.374,15.085-27.582,15.085c-8.586,0-14.679-2.949-22.124-9.776
				c-1.512-1.386-2.6-2.452-5.458-5.309c-8.331-8.331-21.839-8.331-30.17,0c-8.331,8.331-8.331,21.839,0,30.17
				c3.301,3.301,4.669,4.641,6.792,6.588c14.65,13.433,30.272,20.994,50.959,20.994c24.389,0,38.801-8.631,57.752-27.582
				c8.331-8.331,8.331-21.839,0-30.17C305.418,371.248,291.911,371.248,283.58,379.58z"/>
			<path d="M213.583,347.134c8.832,0,16-7.381,16-16.469c0-9.088-7.168-16.469-16-16.469c-8.832,0-16,7.381-16,16.469
				C197.583,339.753,204.751,347.134,213.583,347.134z"/>
			<path d="M298.916,347.134c8.832,0,16-7.381,16-16.469c0-9.088-7.168-16.469-16-16.469c-8.832,0-16,7.381-16,16.469
				C282.916,339.753,290.084,347.134,298.916,347.134z"/>
			<path d="M479.325,206.82C470.494,93.909,375.067,10.665,255.996,10.665c-119.059,0-214.498,83.251-223.329,196.157
				C13.479,214.9,0,233.88,0,255.998v85.333c0,29.446,23.887,53.333,53.333,53.333c10.243,0,19.81-2.896,27.936-7.906
				c32.097,71.995,93.686,114.572,174.729,114.572c81.04,0,142.617-42.574,174.723-114.576c8.128,5.012,17.696,7.91,27.942,7.91
				c29.446,0,53.333-23.887,53.333-53.333v-85.333C511.996,233.878,498.515,214.897,479.325,206.82z M255.996,53.331
				c96.283,0,172.14,65.236,180.547,154.143c-4.005,1.829-7.743,4.137-11.143,6.855C386.661,148.793,319.929,95.998,255.998,95.998
				S125.335,148.793,86.596,214.329c-3.401-2.719-7.14-5.027-11.146-6.857C83.859,118.572,159.726,53.331,255.996,53.331z
				 M396.255,249.962c-15.572-2.779-30.558-15.656-44.309-36.161c-10.321-15.314-31.303-18.193-45.521-6.832
				c-19.752,15.779-43.081,27.157-69.374,34.567c-39.344,11.089-81.65,12.637-121.212,8.233
				c30.312-59.789,89.765-111.105,140.159-111.105C306.446,138.665,365.973,190.09,396.255,249.962z M53.333,351.998
				c-5.882,0-10.667-4.785-10.667-10.667v-85.333c0-5.882,4.785-10.667,10.667-10.667c5.882,0,10.667,4.785,10.667,10.667v10.229
				c-0.003,0.137-0.001,0.273-0.001,0.409c0,0.009-0.001,0.019-0.001,0.028v64l0.002,0.02v10.647
				C64,347.213,59.215,351.998,53.333,351.998z M255.998,458.665c-76.988,0-130.233-47.587-149.331-130.372v-36.638
				c45.83,5.597,95.043,4.171,141.959-9.052c27.527-7.758,52.711-19.323,74.943-35.143c22.501,29.587,50.2,47.983,81.761,46.224
				v34.607C386.209,411.087,332.977,458.665,255.998,458.665z M469.329,341.331c0,5.882-4.785,10.667-10.667,10.667
				s-10.667-4.785-10.667-10.667v-10.648l0.002-0.019v-64c0-0.016-0.002-0.032-0.002-0.048v-0.133c-0.001-0.076,0.001-0.152,0-0.229
				v-10.256c0-5.882,4.785-10.667,10.667-10.667s10.667,4.785,10.667,10.667V341.331z"/>
		</g>
	</g>
</g>
<g>
</g>
<g>
</g>
<g>
</g>
<g>
</g>
<g>
</g>
<g>
</g>
<g>
</g>
<g>
</g>
<g>
</g>
<g>
</g>
<g>
</g>
<g>
</g>
<g>
</g>
<g>
</g>
<g>
</g>
</svg>
