<?xml version="1.0" encoding="iso-8859-1"?>
<!-- Generator: Adobe Illustrator 19.0.0, SVG Export Plug-In . SVG Version: 6.00 Build 0)  -->
<svg version="1.1" id="Layer_1" xmlns="http://www.w3.org/2000/svg" xmlns:xlink="http://www.w3.org/1999/xlink" x="0px" y="0px"
	 viewBox="0 0 512 512" style="enable-background:new 0 0 512 512;" xml:space="preserve">
<g>
	<g>
		<circle cx="287.146" cy="157.427" r="44.386"/>
	</g>
</g>
<g>
	<g>
		<path d="M495.354,261.85c-8.193,0-154.733,0-162.055,0c3.7-3.747,5.943-8.923,5.806-14.603
			c-0.265-11.103-9.508-19.918-20.585-19.622l-69.543,1.665l-38.271-54.704l29.287,24.491c-1.544-2.3-30.916-38.075-30.004-36.96
			c-6.592-8.063-16.494-12.69-26.909-12.571c-10.415,0.119-20.208,4.971-26.615,13.183L78.092,263.207
			c-8.148,10.456-11.39,25.034-6.617,37.963c2.83,7.664,10.743,13.744,19.061,16.148c7.889,3.882,10.432,2.532,36.608,8.815H53.671
			L32.05,155.401c-1.115-8.814-9.165-15.058-17.981-13.939c-8.815,1.116-15.055,9.166-13.94,17.981l23.402,184.799
			c1.018,8.039,7.857,14.067,15.96,14.067h58.097v65.881l-38.216,31.197c-4.747,3.876-5.456,10.867-1.579,15.614
			s10.867,5.455,15.614,1.579l24.18-19.739v11.143c0,6.129,4.968,11.097,11.097,11.097s11.097-4.968,11.097-11.097v-11.143
			l24.18,19.739c4.751,3.877,11.74,3.167,15.614-1.579c3.876-4.747,3.168-11.739-1.579-15.614l-38.216-31.197v-65.881h52.977
			c9.224,0,16.787-7.819,16.023-17.384l4.59,1.102l-28.156,102.527c-3.53,12.852,4.027,26.131,16.879,29.661
			c12.855,3.53,26.132-4.031,29.661-16.879l34.758-126.565c3.608-13.136-4.38-26.674-17.639-29.857l-44.616-10.707l20.355-18.184
			l-26.864-74.382l44.452,63.539c3.769,5.387,9.923,8.582,16.476,8.582c0.161,0,0.322-0.002,0.483-0.006l17.015-0.407
			c-1.732,2.626-2.747,5.767-2.747,9.149c0,9.18,7.443,16.646,16.646,16.646h2.219v168.842c0,6.129,4.968,11.097,11.097,11.097
			c6.129,0,11.097-4.968,11.097-11.097V295.142h177.559v168.842c0,6.129,4.968,11.097,11.097,11.097
			c6.129,0,11.097-4.968,11.097-11.097V295.142h1.11c9.195,0,16.648-7.453,16.648-16.646S504.547,261.85,495.354,261.85z"/>
	</g>
</g>
<g>
	<g>
		<path d="M498.466,160.972c-5.375-2.944-12.12-0.975-15.065,4.4l-33.463,61.078h-60.176c-6.127,0-11.096,4.968-11.096,11.097
			c0,6.129,4.968,11.097,11.097,11.097h66.749c4.054,0,7.785-2.211,9.732-5.765l36.622-66.843
			C505.811,170.663,503.84,163.918,498.466,160.972z"/>
	</g>
</g>
<g>
	<g>
		<path d="M395.091,122.819h-20.414l21.164-37.449c0.826-1.501,1.276-2.926,1.276-4.127c0-1.801-1.126-3.077-3.377-3.077h-28.969
			c-2.476,0-3.528,2.627-3.528,5.104c0,2.702,1.276,5.104,3.528,5.104h17.411l-21.164,37.449c-0.826,1.426-1.276,2.927-1.276,4.128
			c0,1.801,0.977,3.076,3.378,3.076h31.971c2.252,0,3.528-2.702,3.528-5.104S397.343,122.819,395.091,122.819z"/>
	</g>
</g>
<g>
	<g>
		<path d="M438.629,84.181h-14.062l14.579-25.797c0.569-1.034,0.879-2.016,0.879-2.843c0-1.241-0.776-2.12-2.326-2.12h-19.955
			c-1.707,0-2.429,1.809-2.429,3.516c0,1.861,0.879,3.515,2.429,3.515h11.994l-14.579,25.797c-0.569,0.982-0.879,2.016-0.879,2.843
			c0,1.241,0.672,2.12,2.326,2.12h22.023c1.55,0,2.429-1.861,2.429-3.516C441.058,86.041,440.179,84.181,438.629,84.181z"/>
	</g>
</g>
<g>
	<g>
		<path d="M467.323,53.721h-7.683l7.965-14.094c0.311-0.565,0.481-1.102,0.481-1.554c0-0.678-0.423-1.157-1.271-1.157h-10.902
			c-0.932,0-1.327,0.989-1.327,1.92c0,1.018,0.481,1.921,1.327,1.921h6.552L454.5,54.851c-0.311,0.536-0.481,1.102-0.481,1.554
			c0,0.677,0.367,1.157,1.272,1.157h12.032c0.848,0,1.327-1.016,1.327-1.92C468.65,54.739,468.17,53.721,467.323,53.721z"/>
	</g>
</g>
<g>
</g>
<g>
</g>
<g>
</g>
<g>
</g>
<g>
</g>
<g>
</g>
<g>
</g>
<g>
</g>
<g>
</g>
<g>
</g>
<g>
</g>
<g>
</g>
<g>
</g>
<g>
</g>
<g>
</g>
</svg>
